<?xml version="1.0" standalone="no"?><svg xmlns="http://www.w3.org/2000/svg" viewBox="0 0 1440 320"><path fill="#0099ff" fill-opacity="1" d="M0,0L18.5,42.7C36.9,85,74,171,111,186.7C147.7,203,185,149,222,112C258.5,75,295,53,332,37.3C369.2,21,406,11,443,42.7C480,75,517,149,554,160C590.8,171,628,117,665,106.7C701.5,96,738,128,775,160C812.3,192,849,224,886,240C923.1,256,960,256,997,245.3C1033.8,235,1071,213,1108,176C1144.6,139,1182,85,1218,58.7C1255.4,32,1292,32,1329,58.7C1366.2,85,1403,139,1422,165.3L1440,192L1440,320L1421.5,320C1403.1,320,1366,320,1329,320C1292.3,320,1255,320,1218,320C1181.5,320,1145,320,1108,320C1070.8,320,1034,320,997,320C960,320,923,320,886,320C849.2,320,812,320,775,320C738.5,320,702,320,665,320C627.7,320,591,320,554,320C516.9,320,480,320,443,320C406.2,320,369,320,332,320C295.4,320,258,320,222,320C184.6,320,148,320,111,320C73.8,320,37,320,18,320L0,320Z"></path></svg>