<?xml version="1.0" standalone="no"?><svg xmlns="http://www.w3.org/2000/svg" viewBox="0 0 1440 320"><path fill="#ffffff" fill-opacity="1" d="M0,32L24,42.7C48,53,96,75,144,80C192,85,240,75,288,90.7C336,107,384,149,432,170.7C480,192,528,192,576,170.7C624,149,672,107,720,112C768,117,816,171,864,170.7C912,171,960,117,1008,106.7C1056,96,1104,128,1152,133.3C1200,139,1248,117,1296,117.3C1344,117,1392,139,1416,149.3L1440,160L1440,320L1416,320C1392,320,1344,320,1296,320C1248,320,1200,320,1152,320C1104,320,1056,320,1008,320C960,320,912,320,864,320C816,320,768,320,720,320C672,320,624,320,576,320C528,320,480,320,432,320C384,320,336,320,288,320C240,320,192,320,144,320C96,320,48,320,24,320L0,320Z"></path></svg>